<svg width="19" height="19" viewBox="0 0 19 19" fill="none" xmlns="http://www.w3.org/2000/svg">
<path fill-rule="evenodd" clip-rule="evenodd" d="M9.37556 14.208C6.69576 14.208 4.52246 12.0277 4.52246 9.35499C4.52246 6.68229 6.70286 4.50189 9.37556 4.50189C12.0483 4.50189 14.2286 6.68229 14.2286 9.35499C14.2286 12.0277 12.0483 14.208 9.37556 14.208ZM9.37556 5.36699C7.17406 5.36699 5.38756 7.15349 5.38756 9.35499C5.38756 11.5564 7.17406 13.3429 9.37556 13.3429C11.577 13.3429 13.3635 11.5564 13.3635 9.35499C13.3635 7.15349 11.57 5.36699 9.37556 5.36699Z" fill="black"/>
<path d="M15.5647 4.22719C15.5647 4.88369 15.0326 5.41579 14.3761 5.41579C13.7196 5.41579 13.1875 4.88369 13.1875 4.22719C13.1875 3.57069 13.7196 3.03859 14.3761 3.03859C15.0326 3.03859 15.5647 3.57069 15.5647 4.22719Z" fill="black"/>
<path fill-rule="evenodd" clip-rule="evenodd" d="M13.7996 18.6667H5.1344C2.3 18.6667 0 16.3597 0 13.5323V5.1344C0 2.2999 2.307 0 5.1344 0H13.7996C16.634 0 18.941 2.307 18.941 5.1344V13.5323C18.9339 16.3597 16.627 18.6667 13.7996 18.6667ZM5.1274 0.8581C2.7712 0.8581 0.8581 2.7712 0.8581 5.1274V13.5252C0.8581 15.8814 2.7712 17.7945 5.1274 17.7945H13.7925C16.1487 17.7945 18.0618 15.8814 18.0618 13.5252V5.1274C18.0618 2.7712 16.1487 0.8581 13.7925 0.8581H5.1274Z" fill="black"/>
</svg>
