<svg width="21" height="18" viewBox="0 0 21 18" fill="none" xmlns="http://www.w3.org/2000/svg">
<path d="M16.2011 17.6296C15.9004 17.6296 15.6072 17.5343 15.3579 17.351L10.9879 14.1468L8.8689 16.3098C8.7222 16.4564 8.5536 16.5517 8.3703 16.6177C7.7104 16.823 7.0138 16.4638 6.8085 15.8112L5.1808 10.576L0.796095 9.27821C0.466195 9.18291 0.194875 8.92631 0.0702252 8.60371C-0.142405 8.03171 0.143556 7.39391 0.715496 7.17391L18.8847 0.0910138C19.1413 -0.00428624 19.4199 -0.0262868 19.6839 0.0323132C20.4317 0.201013 20.901 0.941514 20.7324 1.68941L17.5942 16.5004C17.5575 16.6984 17.4695 16.889 17.3449 17.0503C17.1176 17.3583 16.7877 17.5563 16.4137 17.6076C16.3477 17.6223 16.2744 17.6296 16.2011 17.6296ZM10.9439 13.1056C11.0392 13.1056 11.1272 13.135 11.2078 13.1936L15.8858 16.6324C16.0031 16.7204 16.1424 16.7571 16.2817 16.7277C16.421 16.7057 16.5457 16.6324 16.6263 16.5224C16.6703 16.4638 16.6997 16.3904 16.7143 16.3171L19.8599 1.49881C19.8892 1.36681 19.8672 1.23481 19.7938 1.11751C19.7205 1.00751 19.6105 0.926813 19.4859 0.897513C19.3906 0.875513 19.2953 0.882814 19.1999 0.919514L1.0308 8.00241C0.913396 8.04641 0.862096 8.17111 0.898796 8.28101C0.920796 8.33971 0.979395 8.39101 1.0454 8.41301L5.5181 9.73281C5.5914 9.64481 5.672 9.57151 5.7674 9.52751L16.2597 3.06051C16.2964 3.03851 16.3404 3.01651 16.3844 3.00921C16.7363 2.92121 17.1029 3.14121 17.1909 3.49311C17.2422 3.69111 17.1982 3.89641 17.0736 4.05771L8.54629 11.5879L7.6444 15.5179C7.7031 15.7012 7.90099 15.7965 8.08429 15.7452C8.13569 15.7305 8.18699 15.7012 8.23099 15.6572L10.6139 13.223C10.7093 13.1496 10.8266 13.1056 10.9439 13.1056ZM6.3552 10.221C6.2607 10.2792 6.194 10.3734 6.1706 10.4818C6.1562 10.5484 6.1587 10.6176 6.178 10.683L7.1556 14L7.68109 11.4485C7.77779 11.1482 7.8204 11.0599 7.9743 10.928L14.368 5.28951L6.3552 10.221Z" fill="black"/>
</svg>
