<svg width="22" height="23" viewBox="0 0 22 23" fill="none" xmlns="http://www.w3.org/2000/svg">
<path d="M14.11 12.205C13.738 12.205 13.022 13.595 12.592 13.595C12.48 13.5903 12.3712 13.5558 12.277 13.495C11.475 13.093 10.773 12.678 10.114 12.048C9.569 11.532 8.968 10.758 8.654 10.085C8.61066 10.0213 8.58543 9.94695 8.581 9.87C8.581 9.54 9.571 8.925 9.571 8.38C9.571 8.237 8.841 6.29 8.739 6.045C8.596 5.673 8.525 5.558 8.139 5.558C7.952 5.558 7.779 5.515 7.609 5.515C7.307 5.515 7.079 5.63 6.863 5.83C6.175 6.475 5.831 7.148 5.803 8.094V8.208C5.788 9.198 6.275 10.185 6.82 10.988C8.05 12.808 9.326 14.398 11.374 15.328C11.99 15.615 13.409 16.216 14.096 16.216C14.913 16.216 16.246 15.701 16.574 14.898C16.704 14.568 16.818 14.168 16.818 13.81C16.818 13.752 16.818 13.666 16.788 13.595C16.688 13.423 14.354 12.205 14.11 12.205ZM11.202 19.798C9.455 19.798 7.722 19.268 6.26 18.308L2.793 19.41L3.925 16.073C2.80828 14.5419 2.20606 12.6961 2.205 10.801C2.205 5.846 6.245 1.806 11.202 1.806C16.159 1.806 20.2 5.845 20.2 10.8C20.2 15.758 16.16 19.798 11.202 19.798ZM11.202 0C5.242 0 0.402 4.842 0.402 10.8C0.402 12.764 0.932 14.698 1.948 16.374L0 22.176L5.974 20.256C7.61893 21.1641 9.4722 21.6276 11.3509 21.6009C13.2297 21.5741 15.069 21.058 16.6874 20.1034C18.3058 19.1488 19.6473 17.7888 20.5797 16.1574C21.512 14.5261 22.0029 12.6799 22.004 10.801C22.004 4.843 17.162 0 11.202 0Z" fill="black"/>
</svg>
